<?xml version="1.0" encoding="utf-8"?><svg width="1040" height="1040" viewBox="0 0 1040 1040" xmlns="http://www.w3.org/2000/svg" xmlns:xlink="http://www.w3.org/1999/xlink"><svg viewBox="-4 -4 520 520" width="520" height="520" id="arrow-circle-left" xmlns="http://www.w3.org/2000/svg"><path d="M256 504C119 504 8 393 8 256S119 8 256 8s248 111 248 248-111 248-248 248zm116-292H256v-70.9c0-10.7-13-16.1-20.5-8.5L121.2 247.5c-4.7 4.7-4.7 12.2 0 16.9l114.3 114.9c7.6 7.6 20.5 2.2 20.5-8.5V300h116c6.6 0 12-5.4 12-12v-64c0-6.6-5.4-12-12-12z"/></svg><svg height="16.25" width="19" viewBox="-4 -4 19 16.25" id="check" x="952" y="520" xmlns="http://www.w3.org/2000/svg"><path d="M0 3.85l1.1-1.1L3.3 4.4S5.72 1.38 10.45 0L11 1.1S5.83 3.52 3.3 8.25L0 3.85zm0 0"/></svg><svg id="db-logo" viewBox="-4 -4 40 35.7" width="40" height="35.7" x="912" y="520" xmlns="http://www.w3.org/2000/svg"><style>.cst0{fill:#cd2c28}</style><path id="cb" class="cst0" d="M24.4 6.7c-1.2 0-2.4.3-3.4.8V0h-4.2v14.3c0 4.2 3.4 7.6 7.6 7.6 4.2 0 7.6-3.4 7.6-7.6 0-4.2-3.4-7.6-7.6-7.6m0 11c-1.9 0-3.4-1.5-3.4-3.4s1.5-3.4 3.4-3.4 3.4 1.5 3.4 3.4-1.5 3.4-3.4 3.4"/><path id="cd" class="cst0" d="M14.9 18.1c0-.1-.1-.2-.1-.3-.2-.8-.3-1.6-.3-2.4V5.7h-4.2V13c-.8-.3-1.7-.5-2.7-.5-4.2 0-7.6 3.4-7.6 7.6 0 4.2 3.4 7.6 7.6 7.6 2.6 0 4.9-1.3 6.2-3.3 1.3 1.4 2.9 2.5 4.7 3.3l2.1-3.7c-2.7-.9-4.9-3.2-5.7-5.9m-7.3 5.4c-1.9 0-3.4-1.5-3.4-3.4s1.5-3.4 3.4-3.4 3.4 1.5 3.4 3.4-1.5 3.4-3.4 3.4"/></svg><svg viewBox="-4 -4 520 520" fill="#336dcc" width="520" height="520" id="download" x="520" xmlns="http://www.w3.org/2000/svg"><path d="M216 0h80c13.3 0 24 10.7 24 24v168h87.7c17.8 0 26.7 21.5 14.1 34.1L269.7 378.3c-7.5 7.5-19.8 7.5-27.3 0L90.1 226.1c-12.6-12.6-3.7-34.1 14.1-34.1H192V24c0-13.3 10.7-24 24-24zm296 376v112c0 13.3-10.7 24-24 24H24c-13.3 0-24-10.7-24-24V376c0-13.3 10.7-24 24-24h146.7l49 49c20.1 20.1 52.5 20.1 72.6 0l49-49H488c13.3 0 24 10.7 24 24zm-124 88c0-11-9-20-20-20s-20 9-20 20 9 20 20 20 20-9 20-20zm64 0c0-11-9-20-20-20s-20 9-20 20 9 20 20 20 20-9 20-20z"/></svg><svg viewBox="-4 -4 520 520" fill="#ce2b27" width="520" height="520" id="flag" y="520" xmlns="http://www.w3.org/2000/svg"><path d="M349.565 98.783C295.978 98.783 251.721 64 184.348 64c-24.955 0-47.309 4.384-68.045 12.013a55.947 55.947 0 0 0 3.586-23.562C118.117 24.015 94.806 1.206 66.338.048 34.345-1.254 8 24.296 8 56c0 19.026 9.497 35.825 24 45.945V488c0 13.255 10.745 24 24 24h16c13.255 0 24-10.745 24-24v-94.4c28.311-12.064 63.582-22.122 114.435-22.122 53.588 0 97.844 34.783 165.217 34.783 48.169 0 86.667-16.294 122.505-40.858C506.84 359.452 512 349.571 512 339.045v-243.1c0-23.393-24.269-38.87-45.485-29.016-34.338 15.948-76.454 31.854-116.95 31.854z"/></svg><svg viewBox="-4 -4 392 520" fill="#336dcc" width="392" height="520" id="preview" x="520" y="520" xmlns="http://www.w3.org/2000/svg"><path d="M224 136V0H24C10.7 0 0 10.7 0 24v464c0 13.3 10.7 24 24 24h336c13.3 0 24-10.7 24-24V160H248c-13.2 0-24-10.8-24-24zm160-14.1v6.1H256V0h6.1c6.4 0 12.5 2.5 17 7l97.9 98c4.5 4.5 7 10.6 7 16.9z"/></svg></svg>